# Made By Osmo
o connector_bottom
v 0.125000 0.125000 -0.125000
v 0.125000 0.125000 0.125000
v 0.125000 0.375000 -0.125000
v 0.125000 0.375000 0.125000
v -0.125000 0.125000 -0.125000
v -0.125000 0.125000 0.125000
v -0.125000 0.375000 -0.125000
v -0.125000 0.375000 0.125000
v 0.187500 -0.000000 -0.187500
v 0.187500 0.000000 0.187500
v 0.187500 0.125000 -0.187500
v 0.187500 0.125000 0.187500
v -0.187500 -0.000000 -0.187500
v -0.187500 0.000000 0.187500
v -0.187500 0.125000 -0.187500
v -0.187500 0.125000 0.187500
vn 1.0000 -0.0000 -0.0000
vn -1.0000 -0.0000 -0.0000
vn -0.0000 -0.0000 -1.0000
vn -0.0000 -0.0000 1.0000
vn -0.0000 -1.0000 -0.0000
vn -0.0000 1.0000 -0.0000
vt 0.578947 0.597561
vt 0.526316 0.597561
vt 0.526316 0.548781
vt 0.578947 0.548781
vt 0.684211 0.548781
vt 0.684211 0.597561
vt 0.631579 0.597561
vt 0.631579 0.548781
vt 0.473684 0.597561
vt 0.473684 0.548781
vt 0.026316 0.439024
vt 0.026316 0.512195
vt 0.000000 0.512195
vt 0.000000 0.439024
vt 0.131579 0.512195
vt 0.105263 0.512195
vt 0.105263 0.439024
vt 0.131579 0.439024
vt 0.026316 0.414634
vt 0.026316 0.341463
vt 0.105263 0.341463
vt 0.105263 0.414634
vt 0.026316 0.536585
vt 0.105263 0.536585
s 1
usemtl m_f42186b9-8866-2a62-b38d-205ccafa23e8
f 2/1/1 1/2/1 3/3/1
f 2/1/1 3/3/1 4/4/1
f 7/5/2 5/6/2 6/7/2
f 7/5/2 6/7/2 8/8/2
f 3/3/3 1/2/3 5/9/3
f 3/3/3 5/9/3 7/10/3
f 6/7/4 2/1/4 4/4/4
f 6/7/4 4/4/4 8/8/4
f 10/11/1 9/12/1 11/13/1
f 10/11/1 11/13/1 12/14/1
f 15/15/2 13/16/2 14/17/2
f 15/15/2 14/17/2 16/18/2
f 13/16/5 9/12/5 10/11/5
f 13/16/5 10/11/5 14/17/5
f 12/19/6 11/20/6 15/21/6
f 12/19/6 15/21/6 16/22/6
f 11/23/3 9/12/3 13/16/3
f 11/23/3 13/16/3 15/24/3
f 14/17/4 10/11/4 12/19/4
f 14/17/4 12/19/4 16/22/4
o connector_front
v 0.125000 0.375000 0.375000
v 0.125000 0.625000 0.375000
v 0.125000 0.375000 0.125000
v 0.125000 0.625000 0.125000
v -0.125000 0.375000 0.375000
v -0.125000 0.625000 0.375000
v -0.125000 0.375000 0.125000
v -0.125000 0.625000 0.125000
v 0.187500 0.312500 0.500000
v 0.187500 0.687500 0.500000
v 0.187500 0.312500 0.375000
v 0.187500 0.687500 0.375000
v -0.187500 0.312500 0.500000
v -0.187500 0.687500 0.500000
v -0.187500 0.312500 0.375000
v -0.187500 0.687500 0.375000
vn 1.0000 -0.0000 -0.0000
vn -1.0000 -0.0000 -0.0000
vn -0.0000 -1.0000 -0.0000
vn -0.0000 1.0000 -0.0000
vn -0.0000 -0.0000 1.0000
vn -0.0000 -0.0000 -1.0000
vt 0.578947 0.597561
vt 0.526316 0.597561
vt 0.526316 0.548781
vt 0.578947 0.548781
vt 0.684211 0.548781
vt 0.684211 0.597561
vt 0.631579 0.597561
vt 0.631579 0.548781
vt 0.473684 0.597561
vt 0.473684 0.548781
vt 0.026316 0.439024
vt 0.026316 0.512195
vt 0.000000 0.512195
vt 0.000000 0.439024
vt 0.131579 0.512195
vt 0.105263 0.512195
vt 0.105263 0.439024
vt 0.131579 0.439024
vt 0.026316 0.414634
vt 0.026316 0.341463
vt 0.105263 0.341463
vt 0.105263 0.414634
vt 0.026316 0.536585
vt 0.105263 0.536585
s 1
usemtl m_f42186b9-8866-2a62-b38d-205ccafa23e8
f 18/25/7 17/26/7 19/27/7
f 18/25/7 19/27/7 20/28/7
f 23/29/8 21/30/8 22/31/8
f 23/29/8 22/31/8 24/32/8
f 19/27/9 17/26/9 21/33/9
f 19/27/9 21/33/9 23/34/9
f 22/31/10 18/25/10 20/28/10
f 22/31/10 20/28/10 24/32/10
f 26/35/7 25/36/7 27/37/7
f 26/35/7 27/37/7 28/38/7
f 31/39/8 29/40/8 30/41/8
f 31/39/8 30/41/8 32/42/8
f 29/40/11 25/36/11 26/35/11
f 29/40/11 26/35/11 30/41/11
f 28/43/12 27/44/12 31/45/12
f 28/43/12 31/45/12 32/46/12
f 27/47/9 25/36/9 29/40/9
f 27/47/9 29/40/9 31/48/9
f 30/41/10 26/35/10 28/43/10
f 30/41/10 28/43/10 32/46/10
o connector_side
v 0.125000 0.625000 -0.375000
v 0.125000 0.375000 -0.375000
v 0.125000 0.625000 -0.125000
v 0.125000 0.375000 -0.125000
v -0.125000 0.625000 -0.375000
v -0.125000 0.375000 -0.375000
v -0.125000 0.625000 -0.125000
v -0.125000 0.375000 -0.125000
v 0.187500 0.687500 -0.500000
v 0.187500 0.312500 -0.500000
v 0.187500 0.687500 -0.375000
v 0.187500 0.312500 -0.375000
v -0.187500 0.687500 -0.500000
v -0.187500 0.312500 -0.500000
v -0.187500 0.687500 -0.375000
v -0.187500 0.312500 -0.375000
vn 1.0000 -0.0000 -0.0000
vn -1.0000 -0.0000 -0.0000
vn -0.0000 1.0000 -0.0000
vn -0.0000 -1.0000 -0.0000
vn -0.0000 -0.0000 -1.0000
vn -0.0000 -0.0000 1.0000
vt 0.578947 0.597561
vt 0.526316 0.597561
vt 0.526316 0.548781
vt 0.578947 0.548781
vt 0.684211 0.548781
vt 0.684211 0.597561
vt 0.631579 0.597561
vt 0.631579 0.548781
vt 0.473684 0.597561
vt 0.473684 0.548781
vt 0.026316 0.439024
vt 0.026316 0.512195
vt 0.000000 0.512195
vt 0.000000 0.439024
vt 0.131579 0.512195
vt 0.105263 0.512195
vt 0.105263 0.439024
vt 0.131579 0.439024
vt 0.026316 0.414634
vt 0.026316 0.341463
vt 0.105263 0.341463
vt 0.105263 0.414634
vt 0.026316 0.536585
vt 0.105263 0.536585
s 1
usemtl m_f42186b9-8866-2a62-b38d-205ccafa23e8
f 34/49/13 33/50/13 35/51/13
f 34/49/13 35/51/13 36/52/13
f 39/53/14 37/54/14 38/55/14
f 39/53/14 38/55/14 40/56/14
f 35/51/15 33/50/15 37/57/15
f 35/51/15 37/57/15 39/58/15
f 38/55/16 34/49/16 36/52/16
f 38/55/16 36/52/16 40/56/16
f 42/59/13 41/60/13 43/61/13
f 42/59/13 43/61/13 44/62/13
f 47/63/14 45/64/14 46/65/14
f 47/63/14 46/65/14 48/66/14
f 45/64/17 41/60/17 42/59/17
f 45/64/17 42/59/17 46/65/17
f 44/67/18 43/68/18 47/69/18
f 44/67/18 47/69/18 48/70/18
f 43/71/15 41/60/15 45/64/15
f 43/71/15 45/64/15 47/72/15
f 46/65/16 42/59/16 44/67/16
f 46/65/16 44/67/16 48/70/16
o connector_top
v 0.125000 0.875000 0.125000
v 0.125000 0.875000 -0.125000
v 0.125000 0.625000 0.125000
v 0.125000 0.625000 -0.125000
v -0.125000 0.875000 0.125000
v -0.125000 0.875000 -0.125000
v -0.125000 0.625000 0.125000
v -0.125000 0.625000 -0.125000
v 0.187500 1.000000 0.187500
v 0.187500 1.000000 -0.187500
v 0.187500 0.875000 0.187500
v 0.187500 0.875000 -0.187500
v -0.187500 1.000000 0.187500
v -0.187500 1.000000 -0.187500
v -0.187500 0.875000 0.187500
v -0.187500 0.875000 -0.187500
vn 1.0000 -0.0000 -0.0000
vn -1.0000 -0.0000 -0.0000
vn -0.0000 -0.0000 1.0000
vn -0.0000 -0.0000 -1.0000
vn -0.0000 1.0000 -0.0000
vn -0.0000 -1.0000 -0.0000
vt 0.578947 0.597561
vt 0.526316 0.597561
vt 0.526316 0.548781
vt 0.578947 0.548781
vt 0.684211 0.548781
vt 0.684211 0.597561
vt 0.631579 0.597561
vt 0.631579 0.548781
vt 0.473684 0.597561
vt 0.473684 0.548781
vt 0.026316 0.439024
vt 0.026316 0.512195
vt 0.000000 0.512195
vt 0.000000 0.439024
vt 0.131579 0.512195
vt 0.105263 0.512195
vt 0.105263 0.439024
vt 0.131579 0.439024
vt 0.026316 0.414634
vt 0.026316 0.341463
vt 0.105263 0.341463
vt 0.105263 0.414634
vt 0.026316 0.536585
vt 0.105263 0.536585
s 1
usemtl m_f42186b9-8866-2a62-b38d-205ccafa23e8
f 50/73/19 49/74/19 51/75/19
f 50/73/19 51/75/19 52/76/19
f 55/77/20 53/78/20 54/79/20
f 55/77/20 54/79/20 56/80/20
f 51/75/21 49/74/21 53/81/21
f 51/75/21 53/81/21 55/82/21
f 54/79/22 50/73/22 52/76/22
f 54/79/22 52/76/22 56/80/22
f 58/83/19 57/84/19 59/85/19
f 58/83/19 59/85/19 60/86/19
f 63/87/20 61/88/20 62/89/20
f 63/87/20 62/89/20 64/90/20
f 61/88/23 57/84/23 58/83/23
f 61/88/23 58/83/23 62/89/23
f 60/91/24 59/92/24 63/93/24
f 60/91/24 63/93/24 64/94/24
f 59/95/21 57/84/21 61/88/21
f 59/95/21 61/88/21 63/96/21
f 62/89/22 58/83/22 60/91/22
f 62/89/22 60/91/22 64/94/22
o solar_panel
v -2.500000 0.613546 -0.500208
v -2.312500 0.500000 -0.250000
v -2.312500 0.500000 -0.375000
v -2.312500 0.125000 -0.250000
v -2.312500 0.125000 -0.375000
v -2.437500 0.500000 -0.250000
v -2.437500 0.500000 -0.375000
v -2.437500 0.125000 -0.250000
v -2.437500 0.125000 -0.375000
v -2.312500 0.750000 0.375000
v -2.312500 0.750000 0.250000
v -2.312500 0.125000 0.375000
v -2.312500 0.125000 0.250000
v -2.437500 0.750000 0.375000
v -2.437500 0.750000 0.250000
v -2.437500 0.125000 0.375000
v -2.437500 0.125000 0.250000
v -0.562500 0.500000 -0.250000
v -0.562500 0.500000 -0.375000
v -0.562500 0.125000 -0.250000
v -0.562500 0.125000 -0.375000
v -0.687500 0.500000 -0.250000
v -0.687500 0.500000 -0.375000
v -0.687500 0.125000 -0.250000
v -0.687500 0.125000 -0.375000
v -0.562500 0.750000 0.375000
v -0.562500 0.750000 0.250000
v -0.562500 0.125000 0.375000
v -0.562500 0.125000 0.250000
v -0.687500 0.750000 0.375000
v -0.687500 0.750000 0.250000
v -0.687500 0.125000 0.375000
v -0.687500 0.125000 0.250000
v -0.500000 0.125000 0.437500
v -0.500000 0.125000 -0.437500
v -0.500000 0.000000 0.437500
v -0.500000 -0.000000 -0.437500
v -2.500000 0.125000 0.437500
v -2.500000 0.125000 -0.437500
v -2.500000 0.000000 0.437500
v -2.500000 -0.000000 -0.437500
v -2.500000 0.996229 0.423671
v -2.500000 0.440319 -0.428455
v -2.500000 0.823003 0.495424
v -0.500000 0.613546 -0.500208
v -0.500000 0.996229 0.423671
v -0.500000 0.440319 -0.428455
v -0.500000 0.823003 0.495424
v -2.375000 0.661382 -0.384723
v -2.375000 0.948394 0.308186
v -0.625000 0.661382 -0.384723
v -0.625000 0.948394 0.308186
v -2.375000 0.603639 -0.360806
v -2.375000 0.890652 0.332104
v -0.625000 0.603639 -0.360806
v -0.625000 0.890652 0.332104
v -2.437500 0.406494 -0.346795
v -0.562500 0.406494 -0.346795
v -2.437500 0.741342 0.461600
v -0.562500 0.741342 0.461600
v 0.500000 0.613546 -0.500208
v 0.687500 0.500000 -0.250000
v 0.687500 0.500000 -0.375000
v 0.687500 0.125000 -0.250000
v 0.687500 0.125000 -0.375000
v 0.562500 0.500000 -0.250000
v 0.562500 0.500000 -0.375000
v 0.562500 0.125000 -0.250000
v 0.562500 0.125000 -0.375000
v 0.687500 0.750000 0.375000
v 0.687500 0.750000 0.250000
v 0.687500 0.125000 0.375000
v 0.687500 0.125000 0.250000
v 0.562500 0.750000 0.375000
v 0.562500 0.750000 0.250000
v 0.562500 0.125000 0.375000
v 0.562500 0.125000 0.250000
v 2.437500 0.500000 -0.250000
v 2.437500 0.500000 -0.375000
v 2.437500 0.125000 -0.250000
v 2.437500 0.125000 -0.375000
v 2.312500 0.500000 -0.250000
v 2.312500 0.500000 -0.375000
v 2.312500 0.125000 -0.250000
v 2.312500 0.125000 -0.375000
v 2.437500 0.750000 0.375000
v 2.437500 0.750000 0.250000
v 2.437500 0.125000 0.375000
v 2.437500 0.125000 0.250000
v 2.312500 0.750000 0.375000
v 2.312500 0.750000 0.250000
v 2.312500 0.125000 0.375000
v 2.312500 0.125000 0.250000
v 2.500000 0.125000 0.437500
v 2.500000 0.125000 -0.437500
v 2.500000 0.000000 0.437500
v 2.500000 -0.000000 -0.437500
v 0.500000 0.125000 0.437500
v 0.500000 0.125000 -0.437500
v 0.500000 0.000000 0.437500
v 0.500000 -0.000000 -0.437500
v 0.500000 0.996229 0.423671
v 0.500000 0.440319 -0.428455
v 0.500000 0.823003 0.495424
v 2.500000 0.613546 -0.500208
v 2.500000 0.996229 0.423671
v 2.500000 0.440319 -0.428455
v 2.500000 0.823003 0.495424
v 0.625000 0.661382 -0.384723
v 0.625000 0.948394 0.308186
v 2.375000 0.661382 -0.384723
v 2.375000 0.948394 0.308186
v 0.625000 0.603639 -0.360806
v 0.625000 0.890652 0.332104
v 2.375000 0.603639 -0.360806
v 2.375000 0.890652 0.332104
v 0.562500 0.406494 -0.346795
v 2.437500 0.406494 -0.346795
v 0.562500 0.741342 0.461600
v 2.437500 0.741342 0.461600
v 1.625000 0.625000 0.125000
v 1.625000 0.625000 -0.125000
v 1.375000 0.375000 0.125000
v 1.375000 0.375000 -0.125000
v -1.625000 0.625000 0.125000
v -1.625000 0.625000 -0.125000
v -1.375000 0.375000 0.125000
v -1.375000 0.375000 -0.125000
v 0.312500 0.812500 0.312500
v 0.312500 0.812500 -0.312500
v 0.312500 0.187500 0.312500
v 0.312500 0.187500 -0.312500
v -0.312500 0.812500 0.312500
v -0.312500 0.812500 -0.312500
v -0.312500 0.187500 0.312500
v -0.312500 0.187500 -0.312500
v -0.375000 0.750000 0.250000
v -0.375000 0.750000 -0.250000
v -0.375000 0.250000 0.250000
v -0.375000 0.250000 -0.250000
v 0.375000 0.750000 0.250000
v 0.375000 0.250000 0.250000
v 0.375000 0.750000 -0.250000
v 0.375000 0.250000 -0.250000
vn 1.0000 -0.0000 -0.0000
vn -1.0000 -0.0000 -0.0000
vn -0.0000 -0.0000 1.0000
vn -0.0000 -0.0000 -1.0000
vn -0.0000 1.0000 -0.0000
vn -0.0000 -1.0000 -0.0000
vn -0.0000 0.9239 -0.3827
vn -0.0000 -0.9239 0.3827
vn -0.0000 -0.3827 -0.9239
vn -0.0000 0.3827 0.9239
vn -0.7071 -0.6533 0.2706
vn -0.0000 -0.9239 -0.3827
vn 0.7071 -0.6533 0.2706
vn -0.0000 -0.3827 0.9239
vn 0.7071 -0.7071 -0.0000
vn -0.7071 -0.7071 -0.0000
vn -0.7071 -0.0000 0.7071
vn -0.7071 0.7071 -0.0000
vn -0.7071 -0.0000 -0.7071
vn 0.7071 0.7071 -0.0000
vn 0.7071 -0.0000 0.7071
vn 0.7071 -0.0000 -0.7071
vt 0.052632 0.317073
vt 0.052632 0.292683
vt 0.131579 0.292683
vt 0.131579 0.317073
vt 0.131579 0.268293
vt 0.052632 0.268293
vt 0.052632 0.243902
vt 0.131579 0.243902
vt 0.052632 0.341463
vt 0.131579 0.341463
vt 0.000000 0.317073
vt 0.000000 0.292683
vt 0.000000 0.268293
vt 0.000000 0.243902
vt 0.000000 0.341463
vt 0.552632 0.804878
vt 0.552632 0.975610
vt 0.526316 0.975610
vt 0.526316 0.804878
vt 1.000000 0.975610
vt 0.973684 0.975610
vt 0.973684 0.804878
vt 1.000000 0.804878
vt 0.973684 0.609756
vt 0.973684 0.780488
vt 0.552632 0.780488
vt 0.552632 0.609756
vt 0.552632 1.000000
vt 0.973684 1.000000
vt 0.473684 0.951219
vt 0.473684 0.756098
vt 0.513158 0.756098
vt 0.513158 0.951219
vt 0.013158 0.756098
vt 0.052632 0.756098
vt 0.052632 0.951219
vt 0.013158 0.951219
vt 0.078947 0.780488
vt 0.447368 0.780488
vt 0.447368 0.926829
vt 0.078947 0.926829
vt 0.460526 0.536585
vt 0.460526 0.707317
vt 0.065789 0.707317
vt 0.065789 0.536585
vt 0.473684 0.719512
vt 0.052632 0.719512
vt 0.473684 0.987805
vt 0.052632 0.987805
vt 0.078947 0.768293
vt 0.447368 0.768293
vt 0.460526 0.780488
vt 0.460526 0.926829
vt 0.447368 0.939024
vt 0.078947 0.939024
vt 0.065789 0.926829
vt 0.065789 0.780488
vt 0.526316 0.768293
vt 0.526316 0.939024
vt 0.000000 0.939024
vt 0.000000 0.768293
vt 0.460526 1.000000
vt 0.065789 1.000000
vt 0.131579 0.390244
vt 0.184211 0.341463
vt 0.184211 0.390244
vt 0.763158 0.341463
vt 0.815789 0.341463
vt 0.815789 0.390244
vt 0.763158 0.390244
vt 0.815789 0.487805
vt 0.131579 0.487805
vt 0.131579 0.439024
vt 0.815789 0.439024
vt 0.184211 0.536585
vt 0.763158 0.536585
vt 0.144737 0.097561
vt 0.144737 0.000000
vt 0.250000 0.000000
vt 0.250000 0.097561
vt 0.250000 0.341463
vt 0.144737 0.341463
vt 0.144737 0.243902
vt 0.250000 0.243902
vt 0.000000 0.231707
vt 0.000000 0.109756
vt 0.131579 0.109756
vt 0.131579 0.231707
vt 0.263158 0.109756
vt 0.394737 0.109756
vt 0.394737 0.231707
vt 0.263158 0.231707
vt 0.526316 0.109756
vt 0.526316 0.231707
vt 0.513158 0.243902
vt 0.407895 0.243902
vt 0.118421 0.243902
vt 0.013158 0.243902
vt 0.381579 0.243902
vt 0.276316 0.243902
vt 0.013158 0.097561
vt 0.118421 0.097561
vt 0.407895 0.097561
vt 0.513158 0.097561
vt 0.276316 0.097561
vt 0.381579 0.097561
s 1
usemtl m_f42186b9-8866-2a62-b38d-205ccafa23e8
f 67/97/25 66/98/25 68/99/25
f 67/97/25 68/99/25 69/100/25
f 72/101/26 70/102/26 71/103/26
f 72/101/26 71/103/26 73/104/26
f 68/99/27 66/98/27 70/102/27
f 68/99/27 70/102/27 72/101/27
f 71/105/28 67/97/28 69/100/28
f 71/105/28 69/100/28 73/106/28
f 75/107/25 74/108/25 76/99/25
f 75/107/25 76/99/25 77/100/25
f 80/101/26 78/109/26 79/110/26
f 80/101/26 79/110/26 81/104/26
f 76/99/27 74/108/27 78/109/27
f 76/99/27 78/109/27 80/101/27
f 79/111/28 75/107/28 77/100/28
f 79/111/28 77/100/28 81/106/28
f 83/97/25 82/98/25 84/99/25
f 83/97/25 84/99/25 85/100/25
f 88/101/26 86/102/26 87/103/26
f 88/101/26 87/103/26 89/104/26
f 84/99/27 82/98/27 86/102/27
f 84/99/27 86/102/27 88/101/27
f 87/105/28 83/97/28 85/100/28
f 87/105/28 85/100/28 89/106/28
f 91/107/25 90/108/25 92/99/25
f 91/107/25 92/99/25 93/100/25
f 96/101/26 94/109/26 95/110/26
f 96/101/26 95/110/26 97/104/26
f 92/99/27 90/108/27 94/109/27
f 92/99/27 94/109/27 96/101/27
f 95/111/28 91/107/28 93/100/28
f 95/111/28 93/100/28 97/106/28
f 99/112/25 98/113/25 100/114/25
f 99/112/25 100/114/25 101/115/25
f 104/116/26 102/117/26 103/118/26
f 104/116/26 103/118/26 105/119/26
f 102/117/29 98/113/29 99/112/29
f 102/117/29 99/112/29 103/118/29
f 101/120/30 100/121/30 104/122/30
f 101/120/30 104/122/30 105/123/30
f 100/124/27 98/113/27 102/117/27
f 100/124/27 102/117/27 104/125/27
f 103/118/28 99/112/28 101/122/28
f 103/118/28 101/122/28 105/121/28
f 106/126/26 65/127/26 107/128/26
f 106/126/26 107/128/26 108/129/26
f 111/130/25 109/131/25 110/132/25
f 111/130/25 110/132/25 112/133/25
f 119/134/31 117/135/31 118/136/31
f 119/134/31 118/136/31 120/137/31
f 123/138/32 121/139/32 122/140/32
f 123/138/32 122/140/32 124/141/32
f 107/142/33 65/127/33 109/131/33
f 107/142/33 109/131/33 111/143/33
f 110/132/34 106/126/34 108/144/34
f 110/132/34 108/144/34 112/145/34
f 113/135/31 115/134/31 109/131/31
f 113/135/31 109/131/31 65/127/31
f 114/136/31 113/135/31 65/127/31
f 114/136/31 65/127/31 106/126/31
f 116/137/31 114/136/31 106/126/31
f 116/137/31 106/126/31 110/132/31
f 115/134/31 116/137/31 110/132/31
f 115/134/31 110/132/31 109/131/31
f 117/135/34 119/134/34 115/146/34
f 117/135/34 115/146/34 113/147/34
f 118/136/25 117/135/25 113/148/25
f 118/136/25 113/148/25 114/149/25
f 120/137/33 118/136/33 114/150/33
f 120/137/33 114/150/33 116/151/33
f 119/134/26 120/137/26 116/152/26
f 119/134/26 116/152/26 115/153/26
f 121/154/35 123/155/35 108/129/35
f 121/154/35 108/129/35 107/128/35
f 122/140/36 121/139/36 107/142/36
f 122/140/36 107/142/36 111/143/36
f 124/156/37 122/157/37 111/130/37
f 124/156/37 111/130/37 112/133/37
f 123/158/38 124/159/38 112/145/38
f 123/158/38 112/145/38 108/144/38
f 127/97/25 126/98/25 128/99/25
f 127/97/25 128/99/25 129/100/25
f 132/101/26 130/102/26 131/103/26
f 132/101/26 131/103/26 133/104/26
f 128/99/27 126/98/27 130/102/27
f 128/99/27 130/102/27 132/101/27
f 131/105/28 127/97/28 129/100/28
f 131/105/28 129/100/28 133/106/28
f 135/107/25 134/108/25 136/99/25
f 135/107/25 136/99/25 137/100/25
f 140/101/26 138/109/26 139/110/26
f 140/101/26 139/110/26 141/104/26
f 136/99/27 134/108/27 138/109/27
f 136/99/27 138/109/27 140/101/27
f 139/111/28 135/107/28 137/100/28
f 139/111/28 137/100/28 141/106/28
f 143/97/25 142/98/25 144/99/25
f 143/97/25 144/99/25 145/100/25
f 148/101/26 146/102/26 147/103/26
f 148/101/26 147/103/26 149/104/26
f 144/99/27 142/98/27 146/102/27
f 144/99/27 146/102/27 148/101/27
f 147/105/28 143/97/28 145/100/28
f 147/105/28 145/100/28 149/106/28
f 151/107/25 150/108/25 152/99/25
f 151/107/25 152/99/25 153/100/25
f 156/101/26 154/109/26 155/110/26
f 156/101/26 155/110/26 157/104/26
f 152/99/27 150/108/27 154/109/27
f 152/99/27 154/109/27 156/101/27
f 155/111/28 151/107/28 153/100/28
f 155/111/28 153/100/28 157/106/28
f 159/112/25 158/113/25 160/114/25
f 159/112/25 160/114/25 161/115/25
f 164/116/26 162/117/26 163/118/26
f 164/116/26 163/118/26 165/119/26
f 162/117/29 158/113/29 159/112/29
f 162/117/29 159/112/29 163/118/29
f 161/120/30 160/121/30 164/122/30
f 161/120/30 164/122/30 165/123/30
f 160/124/27 158/113/27 162/117/27
f 160/124/27 162/117/27 164/125/27
f 163/118/28 159/112/28 161/122/28
f 163/118/28 161/122/28 165/121/28
f 166/126/26 125/127/26 167/128/26
f 166/126/26 167/128/26 168/129/26
f 171/130/25 169/131/25 170/132/25
f 171/130/25 170/132/25 172/133/25
f 179/134/31 177/135/31 178/136/31
f 179/134/31 178/136/31 180/137/31
f 183/138/32 181/139/32 182/140/32
f 183/138/32 182/140/32 184/141/32
f 167/142/33 125/127/33 169/131/33
f 167/142/33 169/131/33 171/143/33
f 170/132/34 166/126/34 168/144/34
f 170/132/34 168/144/34 172/145/34
f 173/135/31 175/134/31 169/131/31
f 173/135/31 169/131/31 125/127/31
f 174/136/31 173/135/31 125/127/31
f 174/136/31 125/127/31 166/126/31
f 176/137/31 174/136/31 166/126/31
f 176/137/31 166/126/31 170/132/31
f 175/134/31 176/137/31 170/132/31
f 175/134/31 170/132/31 169/131/31
f 177/135/34 179/134/34 175/146/34
f 177/135/34 175/146/34 173/147/34
f 178/136/25 177/135/25 173/148/25
f 178/136/25 173/148/25 174/149/25
f 180/137/33 178/136/33 174/150/33
f 180/137/33 174/150/33 176/151/33
f 179/134/26 180/137/26 176/152/26
f 179/134/26 176/152/26 175/153/26
f 181/154/35 183/155/35 168/129/35
f 181/154/35 168/129/35 167/128/35
f 182/140/36 181/139/36 167/142/36
f 182/140/36 167/142/36 171/143/36
f 184/156/37 182/157/37 171/130/37
f 184/156/37 171/130/37 172/133/37
f 183/158/38 184/159/38 172/145/38
f 183/158/38 172/145/38 168/144/38
f 186/160/39 185/106/39 187/161/39
f 186/160/39 187/161/39 188/162/39
f 191/163/40 189/164/40 190/165/40
f 191/163/40 190/165/40 192/166/40
f 189/167/29 185/168/29 186/169/29
f 189/167/29 186/169/29 190/170/29
f 188/162/30 187/161/30 191/163/30
f 188/162/30 191/163/30 192/166/30
f 187/171/27 185/168/27 189/167/27
f 187/171/27 189/167/27 191/172/27
f 190/170/28 186/169/28 188/162/28
f 190/170/28 188/162/28 192/166/28
f 207/173/25 205/174/25 206/175/25
f 207/173/25 206/175/25 208/176/25
f 203/177/26 201/178/26 202/179/26
f 203/177/26 202/179/26 204/180/26
f 197/181/29 193/182/29 194/183/29
f 197/181/29 194/183/29 198/184/29
f 196/185/30 195/186/30 199/187/30
f 196/185/30 199/187/30 200/188/30
f 195/186/27 193/189/27 197/190/27
f 195/186/27 197/190/27 199/187/27
f 198/184/28 194/183/28 196/185/28
f 198/184/28 196/185/28 200/188/28
f 201/191/41 203/192/41 199/187/41
f 201/191/41 199/187/41 197/190/41
f 202/193/42 201/194/42 197/181/42
f 202/193/42 197/181/42 198/184/42
f 204/180/43 202/179/43 198/184/43
f 204/180/43 198/184/43 200/188/43
f 203/195/40 204/196/40 200/188/40
f 203/195/40 200/188/40 199/187/40
f 205/197/44 207/198/44 194/183/44
f 205/197/44 194/183/44 193/182/44
f 206/199/45 205/200/45 193/189/45
f 206/199/45 193/189/45 195/186/45
f 208/201/39 206/202/39 195/186/39
f 208/201/39 195/186/39 196/185/39
f 207/173/46 208/176/46 196/185/46
f 207/173/46 196/185/46 194/183/46
