# Made By FuckOsmo
o base
v 0.500000 0.625000 0.500000
v 0.500000 0.625000 -0.500000
v 0.500000 0.000000 0.500000
v 0.500000 -0.000000 -0.500000
v -0.500000 0.625000 0.500000
v -0.500000 0.625000 -0.500000
v -0.500000 0.000000 0.500000
v -0.500000 -0.000000 -0.500000
v 0.500000 1.000000 0.500000
v 0.500000 1.000000 -0.125000
v -0.500000 1.000000 0.500000
v -0.500000 1.000000 -0.125000
v -0.437500 1.000000 -0.125000
v -0.437500 0.625000 -0.500000
v 0.437500 1.000000 -0.125000
v 0.437500 0.625000 -0.500000
v -0.437500 0.625000 -0.125000
v 0.437500 0.625000 -0.125000
v -0.375000 0.875000 0.500000
v -0.375000 0.125000 0.500000
v 0.375000 0.875000 0.500000
v 0.375000 0.125000 0.500000
v -0.375000 0.875000 0.437500
v -0.375000 0.125000 0.437500
v 0.375000 0.875000 0.437500
v 0.375000 0.125000 0.437500
v 0.908955 2.003578 -0.021523
v 0.861119 1.993513 -0.136568
v 0.908955 1.630006 0.011161
v 0.861119 1.619941 -0.103885
v 0.562500 2.016086 0.121437
v 0.514664 2.006021 0.006392
v 0.562500 1.642513 0.154121
v 0.514664 1.632448 0.039076
v 0.841305 1.893288 0.152071
v 0.725821 1.897458 0.199724
v 0.841305 1.768764 0.162965
v 0.725821 1.772933 0.210619
v 0.908955 1.567744 0.016608
v 0.861119 1.557678 -0.098438
v 0.908955 1.194170 0.049291
v 0.861119 1.184105 -0.065754
v 0.562500 1.580251 0.159568
v 0.514664 1.570185 0.044523
v 0.562500 1.206678 0.192252
v 0.514664 1.196613 0.077206
v 0.841305 1.457453 0.190201
v 0.725821 1.461622 0.237855
v 0.841305 1.332929 0.201096
v 0.725821 1.337098 0.248749
v -0.562500 2.016086 0.121437
v -0.514664 2.006021 0.006392
v -0.562500 1.642513 0.154121
v -0.514664 1.632448 0.039076
v -0.908955 2.003578 -0.021523
v -0.861119 1.993513 -0.136568
v -0.908955 1.630006 0.011161
v -0.861119 1.619941 -0.103885
v -0.725821 1.897458 0.199724
v -0.841305 1.893288 0.152071
v -0.725821 1.772933 0.210619
v -0.841305 1.768764 0.162965
v -0.562500 1.580251 0.159568
v -0.514664 1.570185 0.044523
v -0.562500 1.206678 0.192252
v -0.514664 1.196613 0.077206
v -0.908955 1.567744 0.016608
v -0.861119 1.557678 -0.098438
v -0.908955 1.194170 0.049291
v -0.861119 1.184105 -0.065754
v -0.725821 1.461622 0.237855
v -0.841305 1.457453 0.190201
v -0.725821 1.337098 0.248749
v -0.841305 1.332929 0.201096
v -0.437500 1.899732 0.225725
v -0.437500 1.888838 0.101201
v -0.437500 1.775208 0.236619
v -0.437500 1.764314 0.112095
v -0.562500 1.899732 0.225725
v -0.562500 1.888838 0.101201
v -0.562500 1.775208 0.236619
v -0.562500 1.764314 0.112095
v -0.687500 1.894285 0.163463
v -0.687500 1.888838 0.101201
v -0.687500 1.769761 0.174357
v -0.687500 1.764314 0.112095
v -0.437500 1.463897 0.263856
v -0.437500 1.453003 0.139332
v -0.437500 1.339373 0.274751
v -0.437500 1.328479 0.150226
v -0.562500 1.463897 0.263856
v -0.562500 1.453003 0.139332
v -0.562500 1.339373 0.274751
v -0.562500 1.328479 0.150226
v -0.687500 1.458450 0.201593
v -0.687500 1.453003 0.139332
v -0.687500 1.333926 0.212488
v -0.687500 1.328479 0.150226
v 0.437500 1.339373 0.274751
v 0.437500 1.328479 0.150226
v 0.437500 1.463897 0.263856
v 0.437500 1.453003 0.139332
v 0.562500 1.339373 0.274751
v 0.562500 1.328479 0.150226
v 0.562500 1.463897 0.263856
v 0.562500 1.453003 0.139332
v 0.687500 1.333926 0.212488
v 0.687500 1.328479 0.150226
v 0.687500 1.458450 0.201593
v 0.687500 1.453003 0.139332
v 0.437500 1.775208 0.236619
v 0.437500 1.764314 0.112095
v 0.437500 1.899732 0.225725
v 0.437500 1.888838 0.101201
v 0.562500 1.775208 0.236619
v 0.562500 1.764314 0.112095
v 0.562500 1.899732 0.225725
v 0.562500 1.888838 0.101201
v 0.687500 1.769761 0.174357
v 0.687500 1.764314 0.112095
v 0.687500 1.894285 0.163463
v 0.687500 1.888838 0.101201
v 0.500000 1.987678 0.155292
v 0.500000 1.976784 0.030768
v 0.500000 1.240533 0.220659
v 0.500000 1.229638 0.096135
v -0.500000 1.987678 0.155292
v -0.500000 1.976784 0.030768
v -0.500000 1.240533 0.220659
v -0.500000 1.229638 0.096135
v 0.375000 1.874049 0.290711
v -0.375000 1.874049 0.290711
v 0.375000 1.375952 0.334289
v -0.375000 1.375952 0.334289
v 0.062500 1.500000 0.437500
v 0.062500 1.500000 0.312500
v 0.062500 1.000000 0.437500
v 0.062500 1.000000 0.312500
v -0.062500 1.500000 0.437500
v -0.062500 1.500000 0.312500
v -0.062500 1.000000 0.437500
v -0.062500 1.000000 0.312500
v 0.062500 1.687500 0.312500
v -0.062500 1.687500 0.312500
v 0.375000 1.062500 0.062500
v 0.375000 1.062500 -0.187500
v 0.375000 0.812500 0.062500
v 0.375000 0.812500 -0.187500
v -0.125000 1.062500 0.062500
v -0.125000 1.062500 -0.187500
v -0.125000 0.812500 0.062500
v -0.125000 0.812500 -0.187500
v 0.375000 1.187500 -0.062500
v 0.375000 1.187500 -0.187500
v -0.125000 1.187500 -0.062500
v -0.125000 1.187500 -0.187500
v -0.187500 0.872946 -0.197121
v -0.187500 0.743536 -0.680084
v -0.187500 0.812575 -0.180945
v -0.187500 0.683166 -0.663908
v -0.375000 0.872946 -0.197121
v -0.375000 0.743536 -0.680084
v -0.375000 0.812575 -0.180945
v -0.375000 0.683166 -0.663908
v 0.437500 0.828751 -0.120574
v 0.437500 0.666989 -0.724278
v 0.437500 0.647640 -0.072046
v 0.437500 0.485878 -0.675749
v -0.437500 0.828751 -0.120574
v -0.437500 0.666989 -0.724278
v -0.437500 0.647640 -0.072046
v -0.437500 0.485878 -0.675749
v 0.375000 0.796399 -0.241315
v 0.375000 0.666989 -0.724278
v -0.125000 0.796399 -0.241315
v -0.125000 0.666989 -0.724278
v 0.375000 0.606619 -0.708102
v -0.125000 0.606619 -0.708102
v 0.375000 0.736029 -0.225139
v -0.125000 0.736029 -0.225139
vn 1.0000 -0.0000 -0.0000
vn -1.0000 -0.0000 -0.0000
vn -0.0000 0.7071 -0.7071
vn -0.0000 -0.0000 -1.0000
vn -0.0000 -1.0000 -0.0000
vn -0.0000 -0.0000 1.0000
vn -0.0000 1.0000 -0.0000
vn 0.9239 -0.0334 -0.3812
vn -0.9239 0.0334 0.3812
vn -0.0000 0.9962 -0.0872
vn -0.0000 -0.9962 0.0872
vn 0.3827 0.0805 0.9204
vn -0.3827 -0.0805 -0.9204
vn 0.9239 0.0334 0.3812
vn 0.2706 0.7614 0.5892
vn -0.3827 0.0805 0.9204
vn 0.2706 -0.6475 0.7124
vn -0.9239 -0.0334 -0.3812
vn 0.3827 -0.0805 -0.9204
vn -0.2706 0.7614 0.5892
vn -0.2706 -0.6475 0.7124
vn -0.0000 0.0872 0.9962
vn -0.0000 -0.0872 -0.9962
vn -0.4472 0.0780 0.8910
vn 0.4472 0.0780 0.8910
vn 0.7071 0.0616 0.7044
vn -0.0000 0.7660 0.6428
vn -0.7071 0.0616 0.7044
vn -0.0000 -0.6428 0.7660
vn -0.0000 0.5547 0.8321
vn -0.0000 0.7071 0.7071
vn -0.0000 0.9659 -0.2588
vn -0.0000 0.2588 0.9659
vn -0.0000 -0.2588 -0.9659
vn -0.0000 -0.9659 0.2588
vt 0.551724 0.761194
vt 0.367816 0.761194
vt 0.367816 0.611940
vt 0.551724 0.611940
vt 0.183908 0.611940
vt 0.183908 0.761194
vt 0.000000 0.761194
vt 0.000000 0.611940
vt 0.482759 0.850746
vt 0.367816 0.850746
vt 0.183908 0.850746
vt 0.068966 0.850746
vt 0.563218 0.761194
vt 0.563218 0.850746
vt 0.551724 0.850746
vt 0.735632 0.850746
vt 0.724138 0.850746
vt 0.724138 0.761194
vt 0.735632 0.761194
vt 0.735632 0.611940
vt 0.183908 0.373134
vt 0.367816 0.373134
vt 0.344828 0.820895
vt 0.206897 0.820895
vt 0.206897 0.641791
vt 0.344828 0.641791
vt 0.367816 1.000000
vt 0.183908 1.000000
vt 0.620690 0.850746
vt 0.689655 0.850746
vt 0.689655 0.940298
vt 0.551724 0.940298
vt 0.344828 0.835821
vt 0.206897 0.835821
vt 0.195402 0.820895
vt 0.195402 0.641791
vt 0.206897 0.626866
vt 0.344828 0.626866
vt 0.356322 0.641791
vt 0.356322 0.820895
vt 0.908046 0.671642
vt 0.885057 0.671642
vt 0.885057 0.582090
vt 0.908046 0.582090
vt 1.000000 0.582090
vt 1.000000 0.671642
vt 0.977012 0.671642
vt 0.977012 0.582090
vt 0.977012 0.701493
vt 0.908046 0.701493
vt 0.908046 0.552239
vt 0.977012 0.552239
vt 0.862069 0.611940
vt 0.862069 0.641791
vt 0.839080 0.641791
vt 0.839080 0.611940
vt 0.816092 0.671642
vt 0.816092 0.582090
vt 0.908046 0.522388
vt 0.885057 0.522388
vt 0.885057 0.432836
vt 0.908046 0.432836
vt 1.000000 0.432836
vt 1.000000 0.522388
vt 0.977012 0.522388
vt 0.977012 0.432836
vt 0.908046 0.402985
vt 0.977012 0.402985
vt 0.862069 0.462687
vt 0.862069 0.492537
vt 0.839080 0.492537
vt 0.839080 0.462687
vt 0.816092 0.522388
vt 0.816092 0.432836
vt 0.908046 0.970149
vt 0.885057 0.970149
vt 0.885057 0.880597
vt 0.908046 0.880597
vt 1.000000 0.880597
vt 1.000000 0.970149
vt 0.977012 0.970149
vt 0.977012 0.880597
vt 0.977012 1.000000
vt 0.908046 1.000000
vt 0.908046 0.850746
vt 0.977012 0.850746
vt 0.862069 0.910448
vt 0.862069 0.940298
vt 0.839080 0.940298
vt 0.839080 0.910448
vt 0.816092 0.970149
vt 0.816092 0.880597
vt 0.908046 0.820895
vt 0.885057 0.820895
vt 0.885057 0.731343
vt 0.908046 0.731343
vt 1.000000 0.731343
vt 1.000000 0.820895
vt 0.977012 0.820895
vt 0.977012 0.731343
vt 0.862069 0.761194
vt 0.862069 0.791045
vt 0.839080 0.791045
vt 0.839080 0.761194
vt 0.816092 0.820895
vt 0.816092 0.731343
vt 0.459770 0.268657
vt 0.482759 0.268657
vt 0.482759 0.298507
vt 0.459770 0.298507
vt 0.482759 0.208955
vt 0.482759 0.238806
vt 0.459770 0.238806
vt 0.459770 0.208955
vt 0.482759 0.328358
vt 0.459770 0.328358
vt 0.436782 0.268657
vt 0.436782 0.238806
vt 0.436782 0.298507
vt 0.436782 0.283582
vt 0.436782 0.223881
vt 0.436782 0.208955
vt 0.413793 0.268657
vt 0.413793 0.298507
vt 0.413793 0.238806
vt 0.413793 0.208955
vt 0.436782 0.328358
vt 0.413793 0.328358
vt 0.390805 0.268657
vt 0.390805 0.238806
vt 0.390805 0.298507
vt 0.390805 0.283582
vt 0.390805 0.223881
vt 0.390805 0.208955
vt 0.517241 0.268657
vt 0.540230 0.268657
vt 0.540230 0.298507
vt 0.517241 0.298507
vt 0.540230 0.208955
vt 0.540230 0.238806
vt 0.517241 0.238806
vt 0.517241 0.208955
vt 0.540230 0.328358
vt 0.517241 0.328358
vt 0.494253 0.268657
vt 0.494253 0.238806
vt 0.494253 0.298507
vt 0.494253 0.283582
vt 0.494253 0.223881
vt 0.494253 0.208955
vt 0.563218 0.268657
vt 0.586207 0.268657
vt 0.586207 0.298507
vt 0.563218 0.298507
vt 0.586207 0.208955
vt 0.586207 0.238806
vt 0.563218 0.238806
vt 0.563218 0.208955
vt 0.586207 0.328358
vt 0.563218 0.328358
vt 0.540230 0.283582
vt 0.540230 0.223881
vt 0.609195 0.582090
vt 0.586207 0.582090
vt 0.586207 0.402985
vt 0.609195 0.402985
vt 0.816092 0.402985
vt 0.793103 0.582090
vt 0.793103 0.402985
vt 0.793103 0.611940
vt 0.609195 0.611940
vt 0.609195 0.373134
vt 0.793103 0.373134
vt 0.563218 0.432836
vt 0.563218 0.552239
vt 0.425287 0.552239
vt 0.425287 0.432836
vt 0.402299 0.582090
vt 0.402299 0.402985
vt 0.356322 0.328358
vt 0.333333 0.328358
vt 0.333333 0.208955
vt 0.356322 0.208955
vt 0.310345 0.208955
vt 0.310345 0.328358
vt 0.287356 0.328358
vt 0.287356 0.208955
vt 0.379310 0.328358
vt 0.379310 0.208955
vt 0.333333 0.373134
vt 0.310345 0.373134
vt 0.356322 0.373134
vt 0.287356 0.373134
vt 0.045977 0.432836
vt 0.000000 0.432836
vt 0.000000 0.373134
vt 0.045977 0.373134
vt 0.183908 0.432836
vt 0.137931 0.432836
vt 0.137931 0.373134
vt 0.137931 0.492537
vt 0.045977 0.492537
vt 0.045977 0.462687
vt 0.137931 0.462687
vt 0.137931 0.522388
vt 0.045977 0.522388
vt 0.022989 0.462687
vt 0.160920 0.462687
vt 0.045977 0.582090
vt 0.137931 0.582090
vt 0.379310 0.373134
vt 0.379310 0.492537
vt 0.367816 0.492537
vt 0.402299 0.492537
vt 0.390805 0.492537
vt 0.390805 0.373134
vt 0.402299 0.373134
vt 0.367816 0.477612
vt 0.402299 0.477612
vt 0.402299 0.388060
vt 0.367816 0.388060
vt 0.126437 0.208955
vt 0.000000 0.208955
vt 0.000000 0.164179
vt 0.126437 0.164179
vt 0.413793 0.164179
vt 0.287356 0.164179
vt 0.126437 0.000000
vt 0.287356 0.000000
vt 0.137931 0.328358
vt 0.229885 0.328358
vt 0.287356 0.358209
vt 0.126437 0.358209
vt 0.137931 0.208955
vt 0.229885 0.208955
vt 0.137931 0.194030
vt 0.229885 0.194030
vt 0.229885 0.343284
vt 0.137931 0.343284
vt 0.241379 0.328358
vt 0.241379 0.208955
vt 0.126437 0.328358
s 1
usemtl m_27c1aba8-d815-b56f-cfbf-32d2ed4a1df0
f 2/1/1 1/2/1 3/3/1
f 2/1/1 3/3/1 4/4/1
f 7/5/2 5/6/2 6/7/2
f 7/5/2 6/7/2 8/8/2
f 10/9/1 9/10/1 1/2/1
f 10/9/1 1/2/1 2/1/1
f 11/11/2 12/12/2 6/7/2
f 11/11/2 6/7/2 5/6/2
f 2/1/3 16/13/3 15/14/3
f 2/1/3 15/14/3 10/15/3
f 12/16/3 13/17/3 14/18/3
f 12/16/3 14/18/3 6/19/3
f 6/19/4 2/1/4 4/4/4
f 6/19/4 4/4/4 8/20/4
f 8/21/5 4/22/5 3/3/5
f 8/21/5 3/3/5 7/5/5
f 25/23/6 23/24/6 24/25/6
f 25/23/6 24/25/6 26/26/6
f 10/27/7 12/28/7 11/11/7
f 10/27/7 11/11/7 9/10/7
f 15/14/4 18/13/4 17/18/4
f 15/14/4 17/18/4 13/17/4
f 16/29/2 18/30/2 15/31/2
f 17/15/1 14/29/1 13/32/1
f 19/24/6 21/23/6 9/10/6
f 19/24/6 9/10/6 11/11/6
f 20/25/6 19/24/6 11/11/6
f 20/25/6 11/11/6 7/5/6
f 22/26/6 20/25/6 7/5/6
f 22/26/6 7/5/6 3/3/6
f 21/23/6 22/26/6 3/3/6
f 21/23/6 3/3/6 9/10/6
f 23/24/5 25/23/5 21/33/5
f 23/24/5 21/33/5 19/34/5
f 24/25/1 23/24/1 19/35/1
f 24/25/1 19/35/1 20/36/1
f 26/26/7 24/25/7 20/37/7
f 26/26/7 20/37/7 22/38/7
f 25/23/2 26/26/2 22/39/2
f 25/23/2 22/39/2 21/40/2
f 28/41/8 27/42/8 29/43/8
f 28/41/8 29/43/8 30/44/8
f 33/45/9 31/46/9 32/47/9
f 33/45/9 32/47/9 34/48/9
f 31/49/10 27/50/10 28/41/10
f 31/49/10 28/41/10 32/47/10
f 30/44/11 29/51/11 33/52/11
f 30/44/11 33/52/11 34/48/11
f 37/53/12 35/54/12 36/55/12
f 37/53/12 36/55/12 38/56/12
f 32/47/13 28/41/13 30/44/13
f 32/47/13 30/44/13 34/48/13
f 35/54/14 37/53/14 29/43/14
f 35/54/14 29/43/14 27/42/14
f 36/55/15 35/54/15 27/42/15
f 36/55/15 27/42/15 31/57/15
f 38/56/16 36/55/16 31/57/16
f 38/56/16 31/57/16 33/58/16
f 37/53/17 38/56/17 33/58/17
f 37/53/17 33/58/17 29/43/17
f 40/59/8 39/60/8 41/61/8
f 40/59/8 41/61/8 42/62/8
f 45/63/9 43/64/9 44/65/9
f 45/63/9 44/65/9 46/66/9
f 43/52/10 39/51/10 40/59/10
f 43/52/10 40/59/10 44/65/10
f 42/62/11 41/67/11 45/68/11
f 42/62/11 45/68/11 46/66/11
f 49/69/12 47/70/12 48/71/12
f 49/69/12 48/71/12 50/72/12
f 44/65/13 40/59/13 42/62/13
f 44/65/13 42/62/13 46/66/13
f 47/70/14 49/69/14 41/61/14
f 47/70/14 41/61/14 39/60/14
f 48/71/15 47/70/15 39/60/15
f 48/71/15 39/60/15 43/73/15
f 50/72/16 48/71/16 43/73/16
f 50/72/16 43/73/16 45/74/16
f 49/69/17 50/72/17 45/74/17
f 49/69/17 45/74/17 41/61/17
f 52/75/14 51/76/14 53/77/14
f 52/75/14 53/77/14 54/78/14
f 57/79/18 55/80/18 56/81/18
f 57/79/18 56/81/18 58/82/18
f 55/83/10 51/84/10 52/75/10
f 55/83/10 52/75/10 56/81/10
f 54/78/11 53/85/11 57/86/11
f 54/78/11 57/86/11 58/82/11
f 61/87/16 59/88/16 60/89/16
f 61/87/16 60/89/16 62/90/16
f 56/81/19 52/75/19 54/78/19
f 56/81/19 54/78/19 58/82/19
f 59/88/12 61/87/12 53/77/12
f 59/88/12 53/77/12 51/76/12
f 60/89/20 59/88/20 51/76/20
f 60/89/20 51/76/20 55/91/20
f 62/90/9 60/89/9 55/91/9
f 62/90/9 55/91/9 57/92/9
f 61/87/21 62/90/21 57/92/21
f 61/87/21 57/92/21 53/77/21
f 64/93/14 63/94/14 65/95/14
f 64/93/14 65/95/14 66/96/14
f 69/97/18 67/98/18 68/99/18
f 69/97/18 68/99/18 70/100/18
f 67/86/10 63/85/10 64/93/10
f 67/86/10 64/93/10 68/99/10
f 66/96/11 65/50/11 69/49/11
f 66/96/11 69/49/11 70/100/11
f 73/101/16 71/102/16 72/103/16
f 73/101/16 72/103/16 74/104/16
f 68/99/19 64/93/19 66/96/19
f 68/99/19 66/96/19 70/100/19
f 71/102/12 73/101/12 65/95/12
f 71/102/12 65/95/12 63/94/12
f 72/103/20 71/102/20 63/94/20
f 72/103/20 63/94/20 67/105/20
f 74/104/9 72/103/9 67/105/9
f 74/104/9 67/105/9 69/106/9
f 73/101/21 74/104/21 69/106/21
f 73/101/21 69/106/21 65/95/21
f 79/107/10 75/108/10 76/109/10
f 79/107/10 76/109/10 80/110/10
f 78/111/11 77/112/11 81/113/11
f 78/111/11 81/113/11 82/114/11
f 77/112/22 75/108/22 79/107/22
f 77/112/22 79/107/22 81/113/22
f 80/110/23 76/109/23 78/115/23
f 80/110/23 78/115/23 82/116/23
f 83/117/24 85/118/24 81/113/24
f 83/117/24 81/113/24 79/107/24
f 84/119/10 83/120/10 79/107/10
f 84/119/10 79/107/10 80/110/10
f 85/121/11 86/122/11 82/114/11
f 85/121/11 82/114/11 81/113/11
f 91/123/10 87/117/10 88/119/10
f 91/123/10 88/119/10 92/124/10
f 90/122/11 89/118/11 93/125/11
f 90/122/11 93/125/11 94/126/11
f 89/118/22 87/117/22 91/123/22
f 89/118/22 91/123/22 93/125/22
f 92/124/23 88/119/23 90/127/23
f 92/124/23 90/127/23 94/128/23
f 95/129/24 97/130/24 93/125/24
f 95/129/24 93/125/24 91/123/24
f 96/131/10 95/132/10 91/123/10
f 96/131/10 91/123/10 92/124/10
f 97/133/11 98/134/11 94/126/11
f 97/133/11 94/126/11 93/125/11
f 103/135/11 99/136/11 100/137/11
f 103/135/11 100/137/11 104/138/11
f 102/139/10 101/140/10 105/141/10
f 102/139/10 105/141/10 106/142/10
f 101/140/22 99/136/22 103/135/22
f 101/140/22 103/135/22 105/141/22
f 104/138/23 100/137/23 102/143/23
f 104/138/23 102/143/23 106/144/23
f 107/145/25 109/146/25 105/141/25
f 107/145/25 105/141/25 103/135/25
f 108/147/11 107/148/11 103/135/11
f 108/147/11 103/135/11 104/138/11
f 109/149/10 110/150/10 106/142/10
f 109/149/10 106/142/10 105/141/10
f 115/151/11 111/152/11 112/153/11
f 115/151/11 112/153/11 116/154/11
f 114/155/10 113/156/10 117/157/10
f 114/155/10 117/157/10 118/158/10
f 113/156/22 111/152/22 115/151/22
f 113/156/22 115/151/22 117/157/22
f 116/154/23 112/153/23 114/159/23
f 116/154/23 114/159/23 118/160/23
f 119/136/25 121/140/25 117/157/25
f 119/136/25 117/157/25 115/151/25
f 120/137/11 119/161/11 115/151/11
f 120/137/11 115/151/11 116/154/11
f 121/162/10 122/139/10 118/158/10
f 121/162/10 118/158/10 117/157/10
f 124/163/1 123/164/1 125/165/1
f 124/163/1 125/165/1 126/166/1
f 129/167/2 127/58/2 128/168/2
f 129/167/2 128/168/2 130/169/2
f 127/170/10 123/171/10 124/163/10
f 127/170/10 124/163/10 128/168/10
f 126/166/11 125/172/11 129/173/11
f 126/166/11 129/173/11 130/169/11
f 133/174/22 131/175/22 132/176/22
f 133/174/22 132/176/22 134/177/22
f 128/168/23 124/163/23 126/166/23
f 128/168/23 126/166/23 130/169/23
f 131/175/26 133/174/26 125/165/26
f 131/175/26 125/165/26 123/164/26
f 132/176/27 131/175/27 123/164/27
f 132/176/27 123/164/27 127/178/27
f 134/177/28 132/176/28 127/178/28
f 134/177/28 127/178/28 129/179/28
f 133/174/29 134/177/29 129/179/29
f 133/174/29 129/179/29 125/165/29
f 136/180/1 135/181/1 137/182/1
f 136/180/1 137/182/1 138/183/1
f 141/184/2 139/185/2 140/186/2
f 141/184/2 140/186/2 142/187/2
f 137/182/6 135/181/6 139/185/6
f 137/182/6 139/185/6 141/184/6
f 140/188/4 136/180/4 138/183/4
f 140/188/4 138/183/4 142/189/4
f 139/185/30 135/181/30 143/190/30
f 139/185/30 143/190/30 144/191/30
f 143/192/1 135/181/1 136/180/1
f 144/193/2 140/186/2 139/185/2
f 146/194/1 145/195/1 147/196/1
f 146/194/1 147/196/1 148/197/1
f 151/21/2 149/198/2 150/199/2
f 151/21/2 150/199/2 152/200/2
f 155/201/7 153/202/7 154/203/7
f 155/201/7 154/203/7 156/204/7
f 150/199/4 146/194/4 148/197/4
f 150/199/4 148/197/4 152/200/4
f 153/202/31 155/201/31 149/205/31
f 153/202/31 149/205/31 145/206/31
f 154/203/1 153/207/1 145/195/1
f 154/203/1 145/195/1 146/194/1
f 156/204/4 154/203/4 146/194/4
f 156/204/4 146/194/4 150/199/4
f 155/208/2 156/204/2 150/199/2
f 155/208/2 150/199/2 149/198/2
f 147/209/6 145/206/6 149/205/6
f 147/209/6 149/205/6 151/210/6
f 158/211/1 157/212/1 159/213/1
f 158/211/1 159/213/1 160/22/1
f 163/214/2 161/215/2 162/216/2
f 163/214/2 162/216/2 164/217/2
f 161/214/32 157/213/32 158/22/32
f 161/214/32 158/22/32 162/217/32
f 159/213/33 157/218/33 161/219/33
f 159/213/33 161/219/33 163/214/33
f 162/220/34 158/221/34 160/22/34
f 162/220/34 160/22/34 164/217/34
f 166/222/1 165/223/1 167/224/1
f 166/222/1 167/224/1 168/225/1
f 171/226/2 169/126/2 170/187/2
f 171/226/2 170/187/2 172/227/2
f 168/225/35 167/228/35 171/229/35
f 168/225/35 171/229/35 172/227/35
f 173/230/32 175/231/32 169/232/32
f 173/230/32 169/232/32 165/233/32
f 174/234/32 173/230/32 165/233/32
f 174/234/32 165/233/32 166/222/32
f 175/231/32 176/235/32 170/187/32
f 175/231/32 170/187/32 169/232/32
f 177/236/34 174/234/34 166/222/34
f 177/236/34 166/222/34 168/225/34
f 178/237/34 177/236/34 168/225/34
f 178/237/34 168/225/34 172/227/34
f 176/235/34 178/237/34 172/227/34
f 176/235/34 172/227/34 170/187/34
f 179/230/34 180/231/34 175/238/34
f 179/230/34 175/238/34 173/239/34
f 180/231/32 179/230/32 177/234/32
f 180/231/32 177/234/32 178/235/32
f 175/240/1 180/231/1 178/235/1
f 175/240/1 178/235/1 176/241/1
f 174/222/2 177/234/2 179/230/2
f 174/222/2 179/230/2 173/242/2
o drive
v -0.250000 0.969422 -0.288779
v -0.250000 0.872365 -0.651001
v -0.250000 0.848681 -0.256427
v -0.250000 0.751624 -0.618649
v -0.312500 0.969422 -0.288779
v -0.312500 0.872365 -0.651001
v -0.312500 0.848681 -0.256427
v -0.312500 0.751624 -0.618649
vn 1.0000 -0.0000 -0.0000
vn -1.0000 -0.0000 -0.0000
vn -0.0000 0.9659 -0.2588
vn -0.0000 0.2588 0.9659
vn -0.0000 -0.2588 -0.9659
vt 0.379310 0.850746
vt 0.379310 0.940298
vt 0.402299 0.940298
vt 0.402299 0.850746
vt 0.367816 0.850746
vt 0.367816 0.940298
vt 0.379310 0.970149
vt 0.367816 0.970149
s 1
usemtl m_27c1aba8-d815-b56f-cfbf-32d2ed4a1df0
f 182/243/36 181/244/36 183/245/36
f 182/243/36 183/245/36 184/246/36
f 187/245/37 185/244/37 186/243/37
f 187/245/37 186/243/37 188/246/37
f 185/247/38 181/243/38 182/244/38
f 185/247/38 182/244/38 186/248/38
f 183/244/39 181/249/39 185/250/39
f 183/244/39 185/250/39 187/248/39
f 186/248/40 182/244/40 184/249/40
f 186/248/40 184/249/40 188/250/40
